<svg width="2032" height="1309" viewBox="0 0 2032 1309" fill="none" xmlns="http://www.w3.org/2000/svg">
<g clip-path="url(#clip0)">
<rect width="2032" height="1309" fill="url(#paint0_linear)"/>
<path fill-rule="evenodd" clip-rule="evenodd" d="M-52.2539 245.869V706.642L312.824 609.352V203.981C313.1 197.369 311.811 190.784 309.062 184.759C306.312 178.734 302.179 173.436 296.995 169.294C291.811 165.152 285.721 162.281 279.218 160.912C272.715 159.544 265.979 159.717 259.555 161.417L-52.2539 245.869Z" fill="#E5F0FD"/>
<path fill-rule="evenodd" clip-rule="evenodd" d="M312.861 609.297L-52.2525 706.592V1111.99C-52.2973 1117.56 -51.2333 1123.09 -49.1218 1128.25C-47.0102 1133.41 -43.893 1138.11 -39.9499 1142.07C-36.0068 1146.02 -31.3158 1149.16 -26.1475 1151.31C-20.9792 1153.45 -15.4357 1154.55 -9.83699 1154.55C-6.33944 1154.9 -2.81546 1154.9 0.682088 1154.55V1154.55L311.843 1071.45L312.861 609.297Z" fill="#E3F0FE"/>
<path fill-rule="evenodd" clip-rule="evenodd" d="M312.866 609.262V1069.82L677.98 972.505V511.946L312.866 609.262Z" fill="#E8F3FF"/>
<path fill-rule="evenodd" clip-rule="evenodd" d="M677.98 972.096L312.866 1069.69V1474.93C312.909 1481.37 314.434 1487.72 317.324 1493.48C320.214 1499.25 324.392 1504.28 329.539 1508.19C334.686 1512.1 340.664 1514.79 347.017 1516.05C353.37 1517.31 359.928 1517.11 366.19 1515.46L629.751 1444.88C643.519 1441.42 655.736 1433.51 664.47 1422.37C673.205 1411.24 677.959 1397.54 677.98 1383.42V972.096Z" fill="#E5F1FC"/>
<path fill-rule="evenodd" clip-rule="evenodd" d="M677.964 512.071V972.102L992.473 887.999C1006.49 884.86 1019.02 877.066 1028.01 865.897C1037 854.728 1041.92 840.845 1041.95 826.526V468.837C1041.8 462.446 1040.19 456.173 1037.27 450.484C1034.34 444.795 1030.17 439.835 1025.06 435.974C1019.95 432.112 1014.03 429.448 1007.74 428.179C1001.45 426.91 994.962 427.069 988.745 428.643L677.964 512.071Z" fill="#E3F1FF"/>
<path fill-rule="evenodd" clip-rule="evenodd" d="M1397.01 -129.018C1386.35 -126.437 1376.9 -120.339 1370.18 -111.718C1363.46 -103.097 1359.87 -92.4634 1360 -81.5524V192.606C1360 197.541 1361.13 202.413 1363.32 206.842C1365.5 211.272 1368.68 215.141 1372.61 218.15C1376.54 221.16 1381.12 223.228 1385.98 224.196C1390.84 225.164 1395.86 225.004 1400.65 223.731L1640.13 159.925V-193.861L1397.01 -129.018Z" fill="#E6F2FF"/>
<path fill-rule="evenodd" clip-rule="evenodd" d="M1640.13 -194.051V159.832L1920.52 85.1117V-226.222C1920.73 -231.3 1919.74 -236.357 1917.63 -240.985C1915.52 -245.612 1912.35 -249.681 1908.36 -252.862C1904.38 -256.043 1899.71 -258.248 1894.71 -259.299C1889.72 -260.35 1884.54 -260.217 1879.61 -258.912L1640.13 -194.051Z" fill="#E3F0FE"/>
<path fill-rule="evenodd" clip-rule="evenodd" d="M1920.55 85.0684L1640.14 159.793V471.144C1640.1 475.425 1640.92 479.67 1642.54 483.635C1644.16 487.6 1646.56 491.206 1649.58 494.245C1652.61 497.284 1656.22 499.696 1660.19 501.343C1664.15 502.989 1668.41 503.836 1672.71 503.836C1675.4 504.105 1678.1 504.105 1680.79 503.836V503.836L1919.77 440.009L1920.55 85.0684Z" fill="#EEF7FF"/>
<path fill-rule="evenodd" clip-rule="evenodd" d="M1920.55 85.0419V438.76L2200.97 364.02V10.3018L1920.55 85.0419Z" fill="#EDF6FF"/>
<path fill-rule="evenodd" clip-rule="evenodd" d="M2200.97 363.705L1920.55 438.661V749.895C1920.59 754.842 1921.76 759.715 1923.98 764.142C1926.2 768.569 1929.41 772.433 1933.36 775.437C1937.31 778.441 1941.9 780.505 1946.78 781.473C1951.66 782.44 1956.7 782.285 1961.51 781.018L2163.93 726.812C2174.5 724.159 2183.88 718.077 2190.59 709.528C2197.3 700.979 2200.95 690.451 2200.97 679.608V363.705Z" fill="#E8F2FC"/>
</g>
<defs>
<linearGradient id="paint0_linear" x1="1115.5" y1="8.66068e-05" x2="1713.16" y2="1018.41" gradientUnits="userSpaceOnUse">
<stop stop-color="#E9F3FF"/>
<stop offset="1" stop-color="#EDF4FB"/>
</linearGradient>
<clipPath id="clip0">
<rect width="2032" height="1309" fill="white"/>
</clipPath>
</defs>
</svg>
